<svg width="287" height="280" viewBox="0 0 287 280" fill="none" xmlns="http://www.w3.org/2000/svg">
<path fill-rule="evenodd" clip-rule="evenodd" d="M143.346 71.3047C112.889 71.3047 87.8188 95.9905 87.8188 126.491C87.8188 137.227 90.9501 147.729 96.8288 156.712L104.885 169.022C112.682 180.935 116.835 194.865 116.835 209.103C116.835 210.563 118.018 211.746 119.478 211.746H168.451C169.91 211.746 171.093 210.563 171.093 209.103V208.002C171.297 194.117 175.338 180.552 182.781 168.813L190.567 156.533C196.202 147.644 199.195 137.336 199.195 126.811C199.195 96.1337 173.979 71.3047 143.346 71.3047Z" fill="black"/>
<path d="M121.858 227.148H165.155" stroke="black" stroke-width="6" stroke-linecap="round" stroke-linejoin="round"/>
<path d="M132.26 242.299H154.752" stroke="black" stroke-width="6" stroke-linecap="round" stroke-linejoin="round"/>
<path d="M60.0903 140.217H75.2724" stroke="black" stroke-width="6" stroke-linecap="round" stroke-linejoin="round"/>
<path d="M211.741 140.217H226.923" stroke="black" stroke-width="6" stroke-linecap="round" stroke-linejoin="round"/>
<path d="M143.506 37.6289L143.506 52.8109" stroke="black" stroke-width="6" stroke-linecap="round" stroke-linejoin="round"/>
<path d="M76.1117 72.8262L86.847 83.5615" stroke="black" stroke-width="6" stroke-linecap="round" stroke-linejoin="round"/>
<path d="M200.164 83.5566L210.899 72.8213" stroke="black" stroke-width="6" stroke-linecap="round" stroke-linejoin="round"/>
<path fill-rule="evenodd" clip-rule="evenodd" d="M146.7 93.2637L157.951 96.2783L156.025 103.467C158.944 104.972 161.514 106.97 163.655 109.325L170.102 105.603L175.926 115.69L169.479 119.412C170.448 122.444 170.893 125.668 170.737 128.949L177.925 130.876L174.911 142.126L167.722 140.2C166.217 143.12 164.219 145.689 161.864 147.831L165.586 154.278L155.499 160.102L151.777 153.655C148.745 154.623 145.521 155.069 142.24 154.913L140.313 162.101L129.063 159.086L130.989 151.898C128.069 150.392 125.5 148.395 123.358 146.04L116.911 149.762L111.087 139.675L117.534 135.953C116.566 132.921 116.12 129.697 116.276 126.415L109.088 124.489L112.103 113.238L119.291 115.164C120.797 112.245 122.794 109.675 125.149 107.534L121.427 101.087L131.514 95.2629L135.236 101.71C138.268 100.741 141.492 100.296 144.774 100.452L146.7 93.2637ZM158.535 131.71C156.311 140.01 147.78 144.935 139.48 142.711C131.18 140.487 126.255 131.956 128.479 123.656C130.702 115.356 139.234 110.43 147.534 112.654C155.834 114.878 160.759 123.41 158.535 131.71Z" fill="white"/>
</svg>
