<?xml version="1.0" encoding="UTF-8"?>
<svg xmlns="http://www.w3.org/2000/svg" width="124" height="105" viewBox="0 0 124 105" fill="none">
  <path d="M18.2305 41.6873C18.2305 36.3786 22.534 32.0752 27.8426 32.0752H96.106C101.414 32.0752 105.718 36.3786 105.718 41.6873V63.4124C105.718 68.721 101.414 73.0245 96.106 73.0245H27.8426C22.534 73.0245 18.2305 68.721 18.2305 63.4124V41.6873Z" fill="white"></path>
  <path fill-rule="evenodd" clip-rule="evenodd" d="M97.3585 37.4578H26.5967C24.4802 37.4578 22.7644 39.1736 22.7644 41.2901V63.8104C22.7644 65.9269 24.4802 67.6426 26.5967 67.6426H97.3585C99.475 67.6426 101.191 65.9269 101.191 63.8104V41.2901C101.191 39.1736 99.475 37.4578 97.3585 37.4578ZM26.5967 31.3262C21.0938 31.3262 16.6328 35.7872 16.6328 41.2901V63.8104C16.6328 69.3133 21.0938 73.7743 26.5967 73.7743H97.3585C102.861 73.7743 107.322 69.3133 107.322 63.8104V41.2901C107.322 35.7872 102.861 31.3262 97.3585 31.3262H26.5967Z" fill="#C4C4C4"></path>
  <path d="M30.2773 46.1973H37.8939C39.1633 46.1973 40.1364 46.5117 40.813 47.1404C41.4956 47.7692 41.8369 48.5476 41.8369 49.4757C41.8369 50.2542 41.5944 50.9218 41.1094 51.4787C40.7861 51.8499 40.313 52.1434 39.6903 52.3589C40.6364 52.5865 41.331 52.9787 41.7741 53.5355C42.2232 54.0864 42.4477 54.781 42.4477 55.6193C42.4477 56.302 42.289 56.9157 41.9717 57.4606C41.6543 58.0055 41.2202 58.4367 40.6693 58.754C40.328 58.9516 39.813 59.0953 39.1244 59.1852C38.2083 59.3049 37.6005 59.3648 37.3011 59.3648H30.2773V46.1973ZM34.382 51.3619H36.1514C36.7861 51.3619 37.2262 51.2541 37.4717 51.0386C37.7232 50.817 37.849 50.4997 37.849 50.0865C37.849 49.7033 37.7232 49.4039 37.4717 49.1883C37.2262 48.9727 36.7951 48.865 36.1784 48.865H34.382V51.3619ZM34.382 56.5355H36.4568C37.1574 56.5355 37.6514 56.4127 37.9388 56.1672C38.2262 55.9157 38.3699 55.5804 38.3699 55.1613C38.3699 54.7721 38.2262 54.4607 37.9388 54.2272C37.6574 53.9876 37.1604 53.8679 36.4478 53.8679H34.382V56.5355Z" fill="#C4C4C4"></path>
  <path d="M44.7227 46.1973H50.076L52.1418 54.2092L54.1986 46.1973H59.5339V59.3648H56.2106V49.323L53.6328 59.3648H50.6238L48.055 49.323V59.3648H44.7227V46.1973Z" fill="#C4C4C4"></path>
  <path d="M80.7734 59.3648V46.1973H87.5547C88.8122 46.1973 89.7733 46.3051 90.4379 46.5207C91.1026 46.7363 91.6385 47.1374 92.0457 47.7243C92.4529 48.3051 92.6565 49.0147 92.6565 49.853C92.6565 50.5835 92.5008 51.2152 92.1894 51.7482C91.878 52.2751 91.4499 52.7032 90.905 53.0326C90.5577 53.2421 90.0816 53.4158 89.4769 53.5535C89.9619 53.7152 90.3152 53.8769 90.5367 54.0385C90.6864 54.1463 90.902 54.3769 91.1834 54.7301C91.4708 55.0834 91.6625 55.3559 91.7583 55.5475L93.7253 59.3648H89.1266L86.953 55.3409C86.6775 54.82 86.432 54.4816 86.2164 54.326C85.923 54.1224 85.5907 54.0206 85.2195 54.0206H84.8602V59.3648H80.7734ZM84.8602 51.5326H86.5757C86.7613 51.5326 87.1206 51.4727 87.6535 51.3529C87.923 51.2991 88.1416 51.1613 88.3092 50.9398C88.4829 50.7182 88.5697 50.4637 88.5697 50.1763C88.5697 49.7512 88.435 49.4248 88.1655 49.1973C87.8961 48.9698 87.3901 48.856 86.6476 48.856H84.8602V51.5326Z" fill="#C4C4C4"></path>
  <path d="M75.2555 58.7176C75.7885 59.1821 76.1365 59.4734 76.2996 59.5915C76.5441 59.7648 76.8733 59.9655 77.2872 60.1939L76.102 63.1937C75.5063 62.8315 74.9169 62.3985 74.3337 61.8946C73.7505 61.3985 73.3429 61.0245 73.1109 60.7726C72.1703 61.2844 70.9914 61.5403 69.5742 61.5403C67.4798 61.5403 65.8275 60.8553 64.6173 59.4852C63.1875 57.8633 62.4727 55.5839 62.4727 52.647C62.4727 49.7968 63.0966 47.5843 64.3445 46.0095C65.5986 44.427 67.3481 43.6357 69.5931 43.6357C71.8819 43.6357 73.6471 44.4073 74.8887 45.9505C76.1365 47.4937 76.7605 49.7023 76.7605 52.5761C76.7605 55.1351 76.2588 57.1822 75.2555 58.7176Z" fill="#C4C4C4"></path>
  <path d="M69.5167 44.4287L70.996 50.1998H75.7834L71.9103 53.7665L73.3897 59.5376L69.5167 55.9709L65.6436 59.5376L67.123 53.7665L63.25 50.1998H68.0373L69.5167 44.4287Z" fill="white"></path>
</svg>
