<svg width="47" height="47" viewBox="0 0 47 47" fill="none" xmlns="http://www.w3.org/2000/svg">
<path fill-rule="evenodd" clip-rule="evenodd" d="M24.2021 13.2324L26.6756 13.8952L26.2522 15.4756C26.8941 15.8067 27.459 16.2458 27.9298 16.7636L29.3472 15.9452L30.6277 18.163L29.2102 18.9813C29.4232 19.6479 29.5211 20.3567 29.4868 21.0782L31.0672 21.5016L30.4044 23.9752L28.824 23.5517C28.493 24.1937 28.0538 24.7586 27.5361 25.2294L28.3544 26.6468L26.1367 27.9272L25.3183 26.5098C24.6517 26.7228 23.9429 26.8206 23.2215 26.7864L22.798 28.3668L20.3244 27.704L20.7479 26.1236C20.106 25.7925 19.5411 25.3534 19.0702 24.8356L17.6528 25.654L16.3724 23.4362L17.7898 22.6179C17.5769 21.9513 17.479 21.2425 17.5133 20.521L15.9329 20.0976L16.5957 17.624L18.1761 18.0475C18.5071 17.4055 18.9463 16.8406 19.464 16.3698L18.6456 14.9524L20.8634 13.672L21.6817 15.0894C22.3484 14.8764 23.0572 14.7786 23.7786 14.8128L24.2021 13.2324ZM26.8042 21.685C26.3153 23.5098 24.4396 24.5927 22.6148 24.1038C20.79 23.6148 19.7071 21.7391 20.196 19.9143C20.685 18.0895 22.5606 17.0066 24.3855 17.4956C26.2103 17.9845 27.2932 19.8602 26.8042 21.685Z" stroke="#001F3F" stroke-linecap="round" stroke-linejoin="round"/>
<path fill-rule="evenodd" clip-rule="evenodd" d="M23.465 8.4043C16.769 8.4043 11.2571 13.8316 11.2571 20.5375C11.2571 22.8977 11.9455 25.2067 13.238 27.1817L15.0091 29.888C16.7234 32.5073 17.6365 35.5698 17.6365 38.7002C17.6365 39.0211 17.8966 39.2813 18.2175 39.2813H28.9845C29.3054 39.2813 29.5655 39.0211 29.5655 38.7002V38.458C29.6102 35.4054 30.4988 32.423 32.1351 29.842L33.8469 27.1422C35.0859 25.1879 35.7437 22.9217 35.7437 20.6078C35.7437 13.8631 30.1999 8.4043 23.465 8.4043Z" stroke="#001F3F" stroke-linecap="round" stroke-linejoin="round"/>
<path d="M18.7407 42.666H28.2598" stroke="#001F3F" stroke-linecap="round" stroke-linejoin="round"/>
<path d="M21.0276 46H25.9726" stroke="#001F3F" stroke-linecap="round" stroke-linejoin="round"/>
<path d="M5.1604 23.5547H8.49826" stroke="#001F3F" stroke-linecap="round" stroke-linejoin="round"/>
<path d="M38.5015 23.5547H41.8393" stroke="#001F3F" stroke-linecap="round" stroke-linejoin="round"/>
<path d="M23.5 1L23.5 4.33786" stroke="#001F3F" stroke-linecap="round" stroke-linejoin="round"/>
<path d="M8.68262 8.74023L11.0428 11.1005" stroke="#001F3F" stroke-linecap="round" stroke-linejoin="round"/>
<path d="M35.9565 11.0996L38.3168 8.73938" stroke="#001F3F" stroke-linecap="round" stroke-linejoin="round"/>
</svg>
