<?xml version="1.0" encoding="UTF-8"?>
<svg xmlns="http://www.w3.org/2000/svg" width="169" height="105" viewBox="0 0 169 105" fill="none">
  <path d="M29.6123 65.97L40.6548 42.5859H43.9026L54.9451 65.97H50.3982L42.2787 48.432L37.407 59.1497H44.8769L46.5008 62.3975H35.7831L34.1592 65.97H29.6123Z" fill="#CC0000"></path>
  <path d="M50.723 42.5859L61.7655 65.97H65.0132L76.0557 42.5859H71.5088L63.3894 60.4488L55.2699 42.5859H50.723Z" fill="#CC0000"></path>
  <path d="M71.5088 65.97L82.5513 42.5859H85.7991L96.8416 65.97H92.2947L84.1752 48.432L79.3035 59.1497H86.7734L88.3973 62.3975H77.6796L76.0557 65.97H71.5088Z" fill="#CC0000"></path>
  <path d="M93.269 42.5859L103.012 65.6453L98.7903 74.4143H103.337L118.602 42.5859H113.73L105.286 60.7736L98.1407 42.5859H93.269Z" fill="#CC0000"></path>
  <path d="M114.055 65.97L125.097 42.5859H128.345L139.388 65.97H134.841L126.721 48.432L121.85 59.1497H129.32L130.943 62.3975H120.226L118.602 65.97H114.055Z" fill="#CC0000"></path>
</svg>
