<?xml version="1.0" encoding="UTF-8"?>
<svg xmlns="http://www.w3.org/2000/svg" width="169" height="105" viewBox="0 0 169 105" fill="none">
  <path d="M78.4169 59.7213L73.5852 46.1764C73.5059 46.018 73.4267 45.7804 73.4267 45.5427C73.4267 44.9883 73.902 44.3546 74.6941 44.3546C75.2486 44.3546 75.7238 44.7506 75.9614 45.3843L79.9219 57.0282L83.9616 45.3051C84.1201 44.7506 84.5161 44.2754 85.1498 44.2754H85.3082C85.9419 44.2754 86.4171 44.6714 86.5756 45.3051L90.536 57.0282L94.5757 45.3051C94.7342 44.8299 95.051 44.3546 95.7639 44.3546C96.4768 44.3546 96.952 44.8299 96.952 45.4635C96.952 45.7012 96.8728 45.9388 96.7936 46.0972L91.8826 59.6421C91.645 60.355 91.1697 60.751 90.536 60.751H90.4568C89.9024 60.751 89.3479 60.4342 89.1103 59.6421L85.1498 48.1567L81.1893 59.6421C80.9517 60.355 80.5556 60.751 79.8427 60.751H79.7635C79.1298 60.8302 78.6546 60.355 78.4169 59.7213Z" fill="#717074"></path>
  <path d="M113.744 45.6189C113.744 44.9852 114.22 44.3516 114.933 44.3516C115.566 44.3516 116.2 44.8268 116.2 45.6189V48.3913C117.388 45.6981 120.002 44.51 121.665 44.51C122.378 44.51 122.854 44.9852 122.854 45.7773C122.854 46.411 122.458 46.8863 121.745 47.0447C118.656 47.3615 116.121 49.7378 116.121 54.332V59.7183C116.121 60.3519 115.646 60.9856 114.933 60.9856C114.299 60.9856 113.665 60.5104 113.665 59.7183V45.6189" fill="#717074"></path>
  <path d="M130.537 60.9064C126.26 60.9064 122.774 57.5796 122.774 52.6686V52.5894C122.774 47.9952 125.943 44.3516 130.299 44.3516C134.973 44.3516 137.587 48.1536 137.587 52.431C137.587 53.0646 137.111 53.5399 136.478 53.5399H125.071C125.388 56.9459 127.844 58.9262 130.616 58.9262C132.517 58.9262 134.022 58.2133 135.131 57.1043C135.29 56.9459 135.527 56.8667 135.765 56.8667C136.319 56.8667 136.795 57.342 136.795 57.8964C136.795 58.1341 136.715 58.4509 136.478 58.6093C134.973 59.9559 133.23 60.9064 130.537 60.9064ZM135.21 51.7181C134.973 48.7873 133.309 46.3318 130.22 46.3318C127.448 46.3318 125.388 48.6289 125.151 51.7181H135.21Z" fill="#717074"></path>
  <path d="M96.8728 55.9954C96.8728 52.5894 99.6451 50.7676 103.685 50.7676C105.744 50.7676 107.17 51.0052 108.596 51.4012V50.8468C108.596 47.916 106.853 46.5694 103.843 46.5694C102.259 46.5694 101.309 46.7279 100.12 47.2823C99.962 47.3615 99.8036 47.3615 99.7244 47.3615C99.1699 47.3615 98.6154 46.8863 98.6154 46.3318C98.6154 45.7773 98.853 45.5397 99.2491 45.3021C100.833 44.6684 102.021 44.3516 104.081 44.3516C106.299 44.3516 108.041 44.906 109.23 46.0942C110.338 47.2031 110.893 48.7873 110.893 50.7676V59.5598C110.893 60.1935 110.418 60.748 109.705 60.748C109.071 60.748 108.517 60.2727 108.517 59.639V58.0549C107.408 59.5598 105.507 60.8272 102.734 60.8272C99.8828 60.9064 96.8728 59.243 96.8728 55.9954ZM108.596 54.728V53.1438C107.408 52.827 105.824 52.5102 103.843 52.5102C100.833 52.5102 99.1699 53.8567 99.1699 55.837V55.9162C99.1699 57.8964 100.992 59.0846 103.13 59.0846C106.22 59.0846 108.596 57.2628 108.596 54.728Z" fill="#717074"></path>
  <path d="M35.1684 45.3839C34.6931 44.1958 33.3466 43.7205 32.1584 44.1958C30.9703 44.6711 30.495 46.0968 31.1287 47.2058L36.1981 58.2159C36.9902 59.9585 37.8615 60.9091 39.4457 60.9091C41.1091 60.9091 41.822 59.8793 42.6933 58.2159C42.6933 58.2159 47.1291 48.5523 47.2083 48.4731C47.2875 48.3939 47.3667 48.0771 47.842 48.0771C48.238 48.0771 48.4756 48.3939 48.4756 48.79V58.1367C48.4756 59.5625 49.2677 60.8298 50.7727 60.8298C52.3569 60.8298 53.149 59.6417 53.149 58.1367V50.5326C53.149 49.0276 54.258 48.0771 55.6045 48.0771C57.0303 48.0771 57.9808 49.1068 57.9808 50.5326V58.2159C57.9808 59.6417 58.7729 60.9091 60.2779 60.9091C61.8621 60.9091 62.6542 59.7209 62.6542 58.2159V50.5326C62.6542 49.0276 63.7631 48.0771 65.1097 48.0771C66.5355 48.0771 67.486 49.1068 67.486 50.5326V58.2159C67.486 59.6417 68.2781 60.9091 69.7831 60.9091C71.3673 60.9091 72.1594 59.7209 72.1594 58.2159V49.5028C72.1594 46.2552 69.6246 44.0374 66.4563 44.0374C63.2879 44.0374 61.3868 46.176 61.3868 46.176C60.2779 44.8295 58.9313 44.0374 56.4758 44.0374C53.9411 44.0374 51.644 46.176 51.644 46.176C50.6143 44.8295 48.7925 44.0374 47.4459 44.0374C45.228 44.0374 43.4062 45.0671 42.2973 47.5226L39.0497 55.1267L35.1684 45.3839Z" fill="#717074"></path>
  <path d="M137.666 46.3318C137.666 45.2229 138.616 44.3516 139.646 44.3516C140.755 44.3516 141.626 45.3021 141.626 46.3318C141.626 47.4407 140.676 48.3121 139.646 48.3121C138.537 48.3121 137.666 47.4407 137.666 46.3318ZM141.23 46.3318C141.23 45.3813 140.597 44.7476 139.646 44.7476C138.696 44.7476 138.062 45.4605 138.062 46.3318C138.062 47.2823 138.696 47.916 139.646 47.916C140.597 47.916 141.23 47.2031 141.23 46.3318Z" fill="#717074"></path>
  <path d="M138.933 47.3619V45.3027H139.726C139.877 45.3027 140.007 45.3306 140.114 45.3862C140.222 45.4412 140.304 45.5192 140.36 45.6205C140.417 45.721 140.446 45.8393 140.446 45.9754C140.446 46.1121 140.417 46.2298 140.359 46.3283C140.302 46.4261 140.218 46.5012 140.109 46.5535C140.001 46.6058 139.869 46.6319 139.715 46.6319H139.184V46.282H139.646C139.727 46.282 139.795 46.2706 139.848 46.2478C139.902 46.2251 139.942 46.1909 139.968 46.1453C139.995 46.0997 140.008 46.0431 140.008 45.9754C140.008 45.907 139.995 45.8494 139.968 45.8024C139.942 45.7555 139.902 45.72 139.847 45.6959C139.794 45.6711 139.726 45.6587 139.644 45.6587H139.358V47.3619H138.933ZM140.018 46.4248L140.517 47.3619H140.048L139.56 46.4248H140.018Z" fill="#717074"></path>
</svg>
