<svg width="288" height="280" viewBox="0 0 288 280" fill="none" xmlns="http://www.w3.org/2000/svg">
<path d="M157.487 143.838L161.572 147.923L174.289 135.205" stroke="black" stroke-width="6" stroke-linecap="round" stroke-linejoin="round"/>
<path d="M157.487 170.928L161.572 175.013L174.289 162.295" stroke="black" stroke-width="6" stroke-linecap="round" stroke-linejoin="round"/>
<path d="M157.487 198.014L161.572 202.099L174.289 189.381" stroke="black" stroke-width="6" stroke-linecap="round" stroke-linejoin="round"/>
<path d="M94.5624 87.3906H140.193" stroke="black" stroke-width="6" stroke-linecap="round" stroke-linejoin="round"/>
<path d="M160.697 57.6771H76.1652C75.0607 57.6771 74.1652 58.5726 74.1652 59.6771V220.4C74.1652 221.505 75.0607 222.4 76.1652 222.4H193.498C194.602 222.4 195.498 221.505 195.498 220.4V125.206" stroke="black" stroke-width="6" stroke-linecap="round" stroke-linejoin="round"/>
<path d="M94.5624 114.477H140.193" stroke="black" stroke-width="6" stroke-linecap="round" stroke-linejoin="round"/>
<path d="M94.5624 141.566H140.193" stroke="black" stroke-width="6" stroke-linecap="round" stroke-linejoin="round"/>
<path d="M94.5624 168.652H140.193" stroke="black" stroke-width="6" stroke-linecap="round" stroke-linejoin="round"/>
<path d="M94.5624 195.742H140.193" stroke="black" stroke-width="6" stroke-linecap="round" stroke-linejoin="round"/>
<path fill-rule="evenodd" clip-rule="evenodd" d="M193.118 124.636C215.809 124.636 234.204 106.241 234.204 83.5503C234.204 60.8594 215.809 42.4648 193.118 42.4648C170.427 42.4648 152.033 60.8594 152.033 83.5503C152.033 106.241 170.427 124.636 193.118 124.636ZM193.118 113.843C209.849 113.843 223.413 100.28 223.413 83.549C223.413 66.8179 209.849 53.2547 193.118 53.2547C176.387 53.2547 162.824 66.8179 162.824 83.549C162.824 100.28 176.387 113.843 193.118 113.843Z" fill="black"/>
<path d="M231.204 83.5503C231.204 104.584 214.152 121.636 193.118 121.636V127.636C217.466 127.636 237.204 107.898 237.204 83.5503H231.204ZM193.118 45.4648C214.152 45.4648 231.204 62.5163 231.204 83.5503H237.204C237.204 59.2026 217.466 39.4648 193.118 39.4648V45.4648ZM155.033 83.5503C155.033 62.5163 172.084 45.4648 193.118 45.4648V39.4648C168.77 39.4648 149.033 59.2026 149.033 83.5503H155.033ZM193.118 121.636C172.084 121.636 155.033 104.584 155.033 83.5503H149.033C149.033 107.898 168.77 127.636 193.118 127.636V121.636ZM220.413 83.549C220.413 98.6233 208.193 110.843 193.118 110.843V116.843C211.506 116.843 226.413 101.937 226.413 83.549H220.413ZM193.118 56.2547C208.193 56.2547 220.413 68.4748 220.413 83.549H226.413C226.413 65.1611 211.506 50.2547 193.118 50.2547V56.2547ZM165.824 83.549C165.824 68.4748 178.044 56.2547 193.118 56.2547V50.2547C174.73 50.2547 159.824 65.1611 159.824 83.549H165.824ZM193.118 110.843C178.044 110.843 165.824 98.6233 165.824 83.549H159.824C159.824 101.937 174.73 116.843 193.118 116.843V110.843Z" fill="black"/>
<path d="M233.842 164.464L209.015 121.463L217.4 116.622L242.226 159.623C243.563 161.939 242.77 164.899 240.454 166.236C238.139 167.573 235.179 166.779 233.842 164.464Z" fill="black" stroke="black" stroke-width="6" stroke-linecap="round" stroke-linejoin="round"/>
</svg>
