<svg width="287" height="280" viewBox="0 0 287 280" fill="none" xmlns="http://www.w3.org/2000/svg">
<rect x="95.5431" y="83.9863" width="14.1988" height="14.1988" rx="7.09939" fill="black" stroke="black" stroke-width="6" stroke-linecap="round" stroke-linejoin="round"/>
<rect x="172.389" y="143.555" width="14.1988" height="14.1988" rx="7.09939" fill="black" stroke="black" stroke-width="6" stroke-linecap="round" stroke-linejoin="round"/>
<path d="M102.977 184.686C102.977 184.686 96.4933 158.72 140.633 146.115C184.772 133.509 179.044 83.9863 179.044 83.9863" stroke="black" stroke-width="6" stroke-linecap="round" stroke-linejoin="round"/>
<path d="M190.522 93.7104L179.29 82.4785L168.058 93.7104" stroke="black" stroke-width="6" stroke-linecap="round" stroke-linejoin="round"/>
<path d="M96.9037 122.859L108.381 134.337" stroke="black" stroke-width="6" stroke-linecap="round"/>
<path d="M108.381 122.859L96.9038 134.337" stroke="black" stroke-width="6" stroke-linecap="round"/>
<path d="M135.226 83.9863L146.703 95.4638" stroke="black" stroke-width="6" stroke-linecap="round"/>
<path d="M146.704 83.9863L135.226 95.4638" stroke="black" stroke-width="6" stroke-linecap="round"/>
<path d="M135.226 177.629L146.704 189.106" stroke="black" stroke-width="6" stroke-linecap="round"/>
<path d="M146.704 177.629L135.226 189.106" stroke="black" stroke-width="6" stroke-linecap="round"/>
<path d="M173.749 177.629L185.227 189.106" stroke="black" stroke-width="6" stroke-linecap="round"/>
<path d="M185.227 177.629L173.749 189.106" stroke="black" stroke-width="6" stroke-linecap="round"/>
<rect x="70.2504" y="56.957" width="147.236" height="166.015" rx="9" stroke="black" stroke-width="6"/>
<rect x="95.5431" y="176.27" width="14.1988" height="14.1988" rx="7.09939" fill="black" stroke="black" stroke-width="6" stroke-linecap="round" stroke-linejoin="round"/>
</svg>
