<svg width="287" height="280" viewBox="0 0 287 280" fill="none" xmlns="http://www.w3.org/2000/svg">
<rect x="72.6152" y="189.564" width="13.8775" height="33.406" fill="black" stroke="black" stroke-width="4" stroke-linecap="round" stroke-linejoin="round"/>
<rect x="99.6744" y="168.4" width="13.8775" height="54.5716" fill="black" stroke="black" stroke-width="4" stroke-linecap="round" stroke-linejoin="round"/>
<rect x="126.708" y="182.164" width="13.8775" height="40.8012" fill="black" stroke="black" stroke-width="4" stroke-linecap="round" stroke-linejoin="round"/>
<path d="M89.8871 134.484H54.9412V222.972H158.219V193.292" stroke="black" stroke-width="4" stroke-linecap="round" stroke-linejoin="round"/>
<path d="M174.074 112.413C174.474 109.925 174.681 107.372 174.681 104.771C174.681 78.3641 153.274 56.957 126.867 56.957C100.461 56.957 79.0535 78.3641 79.0535 104.771C79.0535 131.178 100.461 152.585 126.867 152.585C135.836 152.585 144.227 150.116 151.4 145.82" stroke="black" stroke-width="4" stroke-linecap="round" stroke-linejoin="round"/>
<path d="M126.869 104.771L93.0596 70.9614C105.057 60.8106 112.544 58.0409 126.869 56.957V104.771Z" fill="black" stroke="black" stroke-width="4" stroke-linecap="round" stroke-linejoin="round"/>
<rect x="151.318" y="112.541" width="80.3275" height="81.0924" fill="black" stroke="black" stroke-width="4" stroke-linecap="round" stroke-linejoin="round"/>
<path d="M156.723 168.776L173.097 159.971L188.236 170.63L199.359 159.971L208.782 165.532L226.546 142.979" stroke="white" stroke-width="4" stroke-linecap="round" stroke-linejoin="round"/>
</svg>
