<?xml version="1.0" encoding="UTF-8"?>
<svg xmlns="http://www.w3.org/2000/svg" width="169" height="105" viewBox="0 0 169 105" fill="none">
  <path fill-rule="evenodd" clip-rule="evenodd" d="M40.2114 52.8189L40.5299 53.1404L40.2119 52.8184L40.2114 52.8189Z" fill="white"></path>
  <path fill-rule="evenodd" clip-rule="evenodd" d="M29.7832 63.3153H29.7917L38.3543 54.7441L29.7832 63.3153Z" fill="white"></path>
  <path fill-rule="evenodd" clip-rule="evenodd" d="M29.7832 63.0629H50.4547L42.6219 55.248L29.7832 63.0629Z" fill="#666869"></path>
  <path fill-rule="evenodd" clip-rule="evenodd" d="M29.785 63.3086L29.7749 63.3187L29.7916 63.3086H29.785Z" fill="#656868"></path>
  <path fill-rule="evenodd" clip-rule="evenodd" d="M38.2227 54.6795L29.7832 63.0623H29.79L42.6362 55.1833L42.6399 55.1812L40.5232 53.06L40.1909 52.7266L38.2227 54.6795Z" fill="#2B2C2B"></path>
  <path fill-rule="evenodd" clip-rule="evenodd" d="M38.037 42.3906L29.7832 50.6449V63.0622L38.1943 54.6505L40.1535 52.6903L40.1545 52.6914L40.155 52.6908L50.4547 42.3906H38.037Z" fill="#FFCE01"></path>
  <path fill-rule="evenodd" clip-rule="evenodd" d="M84.235 63.0622H86.5038V42.3906H84.235V63.0622Z" fill="#2B2C2B"></path>
  <path fill-rule="evenodd" clip-rule="evenodd" d="M111.273 57.3852C111.273 55.106 109.379 53.804 105.769 53.804H98.6024V61.1144H106.183C109.32 61.1144 111.273 59.7231 111.273 57.3852ZM110.119 48.0029C110.119 45.9312 108.491 44.5997 105.532 44.5997H98.6024V51.7322H105.355C108.166 51.7322 110.119 50.4595 110.119 48.0029ZM112.486 47.6774C112.486 50.4002 110.829 51.7915 109.202 52.5019C111.658 53.2417 113.641 54.6624 113.641 57.5332C113.641 61.1144 110.652 63.2156 106.124 63.2156H96.2941V42.498H105.739C109.823 42.498 112.486 44.5105 112.486 47.6774Z" fill="#2B2C2B"></path>
  <mask id="mask0_2126_36" style="mask-type:luminance" maskUnits="userSpaceOnUse" x="118" y="42" width="22" height="22">
    <path d="M118.793 42.1484H139.922V63.5762H118.793V42.1484Z" fill="white"></path>
  </mask>
  <g mask="url(#mask0_2126_36)">
    <path fill-rule="evenodd" clip-rule="evenodd" d="M129.328 44.3089C124.593 44.3089 121.22 48.0975 121.22 52.8327C121.22 57.5685 124.652 61.4159 129.387 61.4159C134.122 61.4159 137.496 57.6273 137.496 52.8921C137.496 48.1563 134.063 44.3089 129.328 44.3089ZM129.328 63.5763C123.025 63.5763 118.793 58.6337 118.793 52.8921C118.793 47.1504 123.084 42.1484 129.387 42.1484C135.691 42.1484 139.922 47.091 139.922 52.8327C139.922 58.5744 135.631 63.5763 129.328 63.5763Z" fill="#2B2C2B"></path>
  </g>
  <path fill-rule="evenodd" clip-rule="evenodd" d="M76.6966 42.498H73.8391L61.6156 54.717V42.6146L59.2779 44.9525V63.2156H61.6156V57.6514L65.0526 54.1552L73.9803 63.2156H76.7218L66.469 52.7602L76.6966 42.498Z" fill="#2B2C2B"></path>
  <path fill-rule="evenodd" clip-rule="evenodd" d="M141.844 43.8302C141.93 43.8302 141.997 43.8103 142.043 43.7709C142.088 43.7321 142.112 43.6759 142.112 43.605C142.112 43.4486 142.022 43.3714 141.844 43.3714H141.645V43.8302H141.844ZM141.645 44.6566H141.354V43.1188H141.886C141.96 43.1188 142.029 43.1314 142.092 43.1556C142.156 43.1792 142.211 43.2133 142.257 43.2564C142.303 43.3 142.339 43.3514 142.366 43.4097C142.392 43.4685 142.406 43.5315 142.406 43.6013C142.406 43.7074 142.375 43.8024 142.313 43.8833C142.25 43.9657 142.169 44.0235 142.07 44.056L142.414 44.6566H142.081L141.759 44.0828H141.645V44.6566ZM140.727 43.899C140.727 44.0602 140.755 44.2098 140.811 44.349C140.867 44.4876 140.945 44.6078 141.044 44.7081C141.144 44.8089 141.26 44.8882 141.392 44.947C141.525 45.0063 141.668 45.0352 141.821 45.0352C141.973 45.0352 142.117 45.0063 142.249 44.947C142.382 44.8882 142.498 44.8089 142.597 44.7081C142.697 44.6078 142.775 44.4876 142.831 44.349C142.887 44.2098 142.915 44.0602 142.915 43.899C142.915 43.7384 142.887 43.5893 142.831 43.4512C142.775 43.3141 142.697 43.1944 142.597 43.0926C142.498 42.9907 142.382 42.9104 142.249 42.8532C142.117 42.7954 141.973 42.7665 141.821 42.7665C141.668 42.7665 141.525 42.7954 141.392 42.8532C141.26 42.9104 141.144 42.9907 141.044 43.0926C140.945 43.1944 140.867 43.3141 140.811 43.4512C140.755 43.5893 140.727 43.7384 140.727 43.899ZM140.428 43.899C140.428 43.7058 140.465 43.5226 140.537 43.352C140.611 43.1818 140.71 43.0312 140.836 42.9031C140.962 42.7739 141.109 42.6731 141.278 42.598C141.446 42.525 141.627 42.4883 141.821 42.4883C142.015 42.4883 142.197 42.525 142.368 42.598C142.539 42.6731 142.687 42.7739 142.813 42.9031C142.939 43.0312 143.04 43.1818 143.114 43.352C143.188 43.5226 143.224 43.7058 143.224 43.899C143.224 44.0928 143.188 44.276 143.114 44.4482C143.04 44.6204 142.939 44.77 142.813 44.8971C142.687 45.0252 142.539 45.1265 142.368 45.2021C142.197 45.2772 142.015 45.315 141.821 45.315C141.627 45.315 141.446 45.2772 141.278 45.2021C141.109 45.1265 140.962 45.0252 140.836 44.8971C140.71 44.77 140.611 44.6204 140.537 44.4482C140.465 44.276 140.428 44.0928 140.428 43.899Z" fill="#2B2C2B"></path>
</svg>
