<?xml version="1.0" encoding="UTF-8"?>
<svg xmlns="http://www.w3.org/2000/svg" width="266" height="105" viewBox="0 0 266 105" fill="none">
  <path d="M244.27 56.3447C244.27 54.6694 243.283 53.8034 241.756 53.2084C240.554 52.7414 239.499 52.3448 238.695 52.0392C237.895 51.7337 237.213 51.2033 237.213 50.629C237.213 49.845 238.221 49.3895 239.555 49.3895C241.13 49.3895 242.369 49.6017 243.564 49.7066H243.6C243.641 49.7069 243.682 49.699 243.719 49.6832C243.757 49.6675 243.791 49.6443 243.82 49.615C243.848 49.5857 243.871 49.5509 243.885 49.5127C243.9 49.4746 243.907 49.4339 243.906 49.393V48.0992C243.906 47.9263 243.764 47.8029 243.582 47.7695C242.968 47.6276 241.391 47.3105 239.666 47.3105C236.302 47.3105 234.7 48.7069 234.7 50.629C234.7 51.849 235.258 53.0528 236.833 53.6812C238.412 54.3108 241.647 55.036 241.647 56.3447C241.647 57.3571 241.158 57.9129 239.547 57.9129C237.875 57.9129 236.182 57.6846 235.458 57.597H235.424C235.334 57.5957 235.248 57.6301 235.183 57.6926C235.119 57.755 235.082 57.8405 235.08 57.9302V59.187C235.08 59.3796 235.242 59.5007 235.423 59.5353C236.292 59.7278 237.914 59.9942 239.511 59.9942C243.132 59.9942 244.27 58.1066 244.27 56.3447ZM127.749 56.3447C127.749 54.6694 126.763 53.8034 125.235 53.2084C124.033 52.7414 122.978 52.3448 122.174 52.0392C121.374 51.7337 120.693 51.2033 120.693 50.629C120.693 49.845 121.7 49.3895 123.034 49.3895C124.61 49.3895 125.848 49.6017 127.043 49.7066H127.079C127.12 49.7069 127.161 49.699 127.198 49.6832C127.236 49.6675 127.27 49.6443 127.299 49.615C127.327 49.5857 127.35 49.5509 127.364 49.5127C127.379 49.4746 127.386 49.4339 127.385 49.393V48.0992C127.385 47.9263 127.243 47.8029 127.062 47.7695C126.446 47.6276 124.869 47.3105 123.144 47.3105C119.781 47.3105 118.177 48.7069 118.177 50.629C118.177 51.849 118.736 53.0528 120.311 53.6812C121.89 54.3108 125.125 55.036 125.125 56.3447C125.125 57.3571 124.637 57.9129 123.026 57.9129C121.354 57.9129 119.66 57.6846 118.936 57.597H118.902C118.812 57.5957 118.725 57.6301 118.661 57.6926C118.596 57.755 118.559 57.8405 118.558 57.9302V59.187C118.558 59.3796 118.719 59.5007 118.9 59.5353C119.77 59.7278 121.392 59.9942 122.989 59.9942C126.61 59.9942 127.749 58.1066 127.749 56.3447ZM154.592 59.1547V47.7833C154.592 47.5896 154.447 47.4512 154.249 47.4512H152.692C152.491 47.4512 152.347 47.5896 152.347 47.7833V56.3966C152.347 56.4993 152.296 56.5546 152.26 56.5546C152.202 56.5546 152.15 56.4993 152.115 56.4139L147.013 48.0116C146.794 47.555 146.596 47.4512 146.217 47.4512H144.262C144.074 47.4484 143.893 47.5204 143.758 47.6512C143.623 47.7819 143.545 47.9609 143.542 48.1488V59.5053C143.542 59.6955 143.7 59.8547 143.903 59.8547H145.437C145.636 59.8547 145.783 59.6955 145.783 59.5053V51.2921C145.783 51.1883 145.821 51.1514 145.873 51.1514C145.927 51.1514 145.983 51.1894 146.034 51.2921L150.942 59.2262C151.225 59.8547 151.607 59.8547 152.04 59.8547H153.87C154.059 59.8574 154.241 59.7853 154.376 59.6541C154.512 59.5229 154.589 59.3433 154.592 59.1547ZM115.817 59.5929V48.1477C115.813 47.9593 115.735 47.7801 115.599 47.6494C115.463 47.5186 115.281 47.447 115.093 47.4501H113.609C113.47 47.4521 113.334 47.4921 113.216 47.5659C113.098 47.6397 113.003 47.7444 112.94 47.8686L109.472 54.6901C109.38 54.8481 109.343 54.9346 109.272 54.9346C109.196 54.9346 109.159 54.8481 109.071 54.6901L105.6 47.8698C105.537 47.7457 105.442 47.6411 105.324 47.5674C105.207 47.4936 105.071 47.4534 104.932 47.4512H103.448C103.26 47.4481 103.078 47.5198 102.942 47.6505C102.807 47.7813 102.728 47.9604 102.724 48.1488V59.5918C102.724 59.7647 102.869 59.8547 103.034 59.8547H104.858C105.022 59.8547 105.149 59.6771 105.149 59.5053V51.9551C105.149 51.8328 105.167 51.7821 105.203 51.7821C105.219 51.7821 105.256 51.8328 105.295 51.8859L108.235 58.1274C108.338 58.3188 108.575 58.4249 108.811 58.4249H109.751C109.986 58.4249 110.22 58.3188 110.326 58.1274L113.246 51.8859C113.285 51.8328 113.321 51.7821 113.335 51.7821C113.374 51.7821 113.392 51.8328 113.392 51.9551V59.5053C113.392 59.6771 113.519 59.8547 113.681 59.8547H115.507C115.671 59.8547 115.817 59.7659 115.817 59.5918V59.5929ZM138.595 52.7587C138.595 50.4549 137.153 49.4241 135.38 49.4241C133.608 49.4241 132.164 50.4549 132.164 52.7587V54.546C132.164 56.8509 133.608 57.8783 135.38 57.8783C137.152 57.8783 138.595 56.8509 138.595 54.546V52.7587ZM141.129 52.7587V54.546C141.129 58.3868 138.365 59.993 135.38 59.993C132.397 59.993 129.634 58.3868 129.634 54.5448V52.7587C129.634 48.9191 132.397 47.3129 135.38 47.3129C138.365 47.3129 141.129 48.9179 141.129 52.7587ZM97.9747 52.7587C97.9747 50.4549 96.5334 49.4241 94.76 49.4241C92.9878 49.4241 91.5441 50.4549 91.5441 52.7587V54.546C91.5441 56.8509 92.9878 57.8783 94.7612 57.8783C96.5334 57.8783 97.9747 56.8509 97.9747 54.546V52.7587ZM100.51 52.7587V54.546C100.51 58.3868 97.7453 59.993 94.76 59.993C91.777 59.993 89.0155 58.3868 89.0155 54.5448V52.7587C89.0155 48.9191 91.777 47.3129 94.76 47.3129C97.7453 47.3129 100.51 48.9179 100.51 52.7587ZM86.5491 59.5041V47.7833C86.5491 47.5896 86.3842 47.4512 86.187 47.4512H84.3998C84.1969 47.4512 84.0343 47.5896 84.0343 47.7833V52.3171H78.3059V47.7833C78.3059 47.5896 78.1421 47.4512 77.9461 47.4512H76.1566C75.9548 47.4512 75.7934 47.5896 75.7934 47.7833V59.5053C75.7934 59.6955 75.9548 59.8547 76.1566 59.8547H77.9461C78.0399 59.8553 78.1302 59.819 78.1976 59.7536C78.2649 59.6883 78.3038 59.5991 78.3059 59.5053V54.4468H84.0343V59.5053C84.0343 59.6955 84.1957 59.8547 84.3998 59.8547H86.187C86.383 59.8547 86.5491 59.6944 86.5491 59.5041ZM208.83 49.4748H205.223V59.5053C205.22 59.6 205.181 59.6899 205.112 59.7554C205.044 59.8208 204.952 59.8565 204.857 59.8547H203.07C202.976 59.8559 202.885 59.8198 202.818 59.7544C202.75 59.6889 202.711 59.5994 202.709 59.5053V49.4748H199.098C198.9 49.4748 198.735 49.3549 198.735 49.1635V47.7833C198.735 47.5896 198.9 47.4512 199.098 47.4512H208.83C209.028 47.4512 209.192 47.5896 209.192 47.7833V49.1624C209.192 49.3549 209.028 49.4748 208.83 49.4748ZM73.3339 49.4748H69.7271V59.5053C69.7247 59.5998 69.6851 59.6895 69.6168 59.7549C69.5486 59.8204 69.4573 59.8562 69.3628 59.8547H67.5755C67.4814 59.8559 67.3907 59.8198 67.323 59.7544C67.2554 59.6889 67.2164 59.5994 67.2146 59.5053V49.4748H63.6021C63.4049 49.4748 63.24 49.3549 63.24 49.1635V47.7833C63.24 47.5896 63.4049 47.4512 63.6021 47.4512H73.3339C73.5334 47.4512 73.6971 47.5896 73.6971 47.7833V49.1624C73.6971 49.3549 73.5322 49.4748 73.3339 49.4748ZM197.135 55.0499V47.7833C197.135 47.5896 196.972 47.4512 196.771 47.4512H194.98C194.782 47.4512 194.621 47.5896 194.621 47.7833V55.0499C194.621 57.0412 193.668 57.9844 191.715 57.9844C189.764 57.9844 188.81 57.0412 188.81 55.0499V47.7833C188.81 47.5896 188.649 47.4512 188.448 47.4512H186.661C186.463 47.4512 186.298 47.5896 186.298 47.7833V55.0499C186.298 58.7708 188.805 59.993 191.715 59.993C194.627 59.993 197.135 58.7708 197.135 55.0499ZM213.352 54.4468H219.14C219.234 54.4481 219.325 54.4124 219.392 54.3474C219.46 54.2825 219.5 54.1935 219.502 54.0997V52.8383C219.5 52.7445 219.46 52.6555 219.392 52.5906C219.325 52.5257 219.234 52.49 219.14 52.4912H213.352V50.8885C213.352 49.4287 213.41 49.3895 214.777 49.3895H219.357C219.451 49.3901 219.542 49.3538 219.61 49.2882C219.677 49.2227 219.717 49.1332 219.719 49.039V47.9217C219.719 47.6761 219.628 47.5873 219.357 47.5538C218.777 47.4685 217.6 47.3117 215.448 47.3117C212.447 47.3117 210.853 47.2909 210.853 50.8885V56.4128C210.853 60.0103 212.447 59.9919 215.448 59.9919C217.6 59.9919 218.777 59.8351 219.357 59.7474C219.628 59.7128 219.719 59.6252 219.719 59.3784V58.2646C219.717 58.1706 219.677 58.0813 219.61 58.0162C219.542 57.951 219.451 57.9151 219.357 57.9164H214.777C213.41 57.9164 213.352 57.876 213.352 56.4128V54.4468ZM177.616 54.4468H183.405C183.499 54.4484 183.59 54.4128 183.658 54.3479C183.726 54.2829 183.765 54.1937 183.768 54.0997V52.8383C183.765 52.7443 183.726 52.6552 183.658 52.5902C183.59 52.5252 183.499 52.4897 183.405 52.4912H177.616V50.8885C177.616 49.4287 177.674 49.3895 179.043 49.3895H183.622C183.716 49.3904 183.807 49.3542 183.875 49.2886C183.943 49.2231 183.982 49.1334 183.985 49.039V47.9217C183.985 47.6761 183.892 47.5873 183.622 47.5538C183.043 47.4685 181.864 47.3117 179.713 47.3117C176.711 47.3117 175.119 47.2909 175.119 50.8885V56.4128C175.119 60.0103 176.711 59.9919 179.714 59.9919C181.864 59.9919 183.043 59.8351 183.622 59.7474C183.892 59.7128 183.985 59.6252 183.985 59.3784V58.2646C183.982 58.1704 183.943 58.081 183.875 58.0157C183.807 57.9505 183.716 57.9148 183.622 57.9164H179.043C177.674 57.9164 177.616 57.876 177.616 56.4128V54.4468ZM230.288 51.2575C230.288 49.9476 229.235 49.3895 227.426 49.3895C227.046 49.3895 225.399 49.4241 225.076 49.4587V53.2442C225.363 53.2626 227.116 53.2984 227.426 53.2984C229.287 53.2984 230.287 52.9525 230.287 51.4166L230.288 51.2575ZM233.217 59.646C233.217 59.7659 233.145 59.8535 233.001 59.8535H230.792C230.594 59.8535 230.521 59.6771 230.431 59.5053L227.826 55.2713H227.426C226.953 55.2713 225.492 55.2205 225.076 55.1998V59.5053C225.077 59.5511 225.069 59.5966 225.052 59.6391C225.034 59.6816 225.009 59.7203 224.977 59.7528C224.945 59.7854 224.906 59.8111 224.864 59.8286C224.822 59.8461 224.776 59.855 224.73 59.8547H222.922C222.828 59.8556 222.738 59.8194 222.67 59.754C222.603 59.6887 222.564 59.5993 222.561 59.5053V48.06C222.561 47.7107 222.776 47.5873 223.14 47.5365C224.082 47.3982 226.104 47.3105 227.426 47.3105C230.211 47.3105 232.782 48.2722 232.782 51.2563V51.4154C232.782 53.2626 231.825 54.275 230.342 54.8308L233.18 59.5041C233.218 59.556 233.218 59.6056 233.218 59.6448L233.217 59.646ZM170.254 51.2575C170.254 49.9476 169.201 49.3895 167.393 49.3895C167.012 49.3895 165.366 49.4241 165.043 49.4587V53.2442C165.331 53.2626 167.083 53.2984 167.393 53.2984C169.254 53.2984 170.253 52.9525 170.253 51.4166L170.254 51.2575ZM173.184 59.646C173.184 59.7659 173.111 59.8535 172.968 59.8535H170.759C170.562 59.8535 170.488 59.6771 170.398 59.5053L167.794 55.2713H167.393C166.921 55.2713 165.46 55.2205 165.043 55.1998V59.5053C165.044 59.5511 165.036 59.5967 165.019 59.6393C165.002 59.6818 164.977 59.7206 164.944 59.7532C164.912 59.7857 164.874 59.8115 164.831 59.829C164.789 59.8464 164.743 59.8551 164.698 59.8547H162.89C162.796 59.8553 162.705 59.819 162.638 59.7536C162.571 59.6883 162.532 59.5991 162.53 59.5053V48.06C162.53 47.7107 162.743 47.5873 163.107 47.5365C164.05 47.3982 166.071 47.3105 167.393 47.3105C170.178 47.3105 172.749 48.2722 172.749 51.2563V51.4154C172.749 53.2626 171.792 54.275 170.309 54.8308L173.146 59.5041C173.184 59.556 173.184 59.6067 173.184 59.646Z" fill="#404040"></path>
  <path d="M53.7665 55.7596C52.8914 55.7596 52.1811 56.4572 52.1811 57.3196C52.1811 58.1798 52.8914 58.8786 53.7665 58.8786C54.6417 58.8786 55.352 58.1798 55.352 57.3196C55.352 56.4572 54.6428 55.7596 53.7665 55.7596ZM51.7556 59.8079C51.013 59.8079 50.4111 60.4006 50.4111 61.1305C50.4111 61.8615 51.013 62.4542 51.7556 62.4542C52.497 62.4542 53.0989 61.8615 53.0989 61.1305C53.0989 60.4006 52.497 59.8079 51.7556 59.8079ZM48.7692 62.98C48.6177 62.9786 48.4673 63.0071 48.3269 63.0639C48.1864 63.1207 48.0584 63.2046 47.9504 63.3108C47.8423 63.417 47.7563 63.5435 47.6971 63.683C47.638 63.8225 47.6069 63.9723 47.6057 64.1238C47.6068 64.2754 47.6377 64.4252 47.6967 64.5647C47.7557 64.7043 47.8416 64.8309 47.9496 64.9372C48.0575 65.0436 48.1854 65.1276 48.3258 65.1845C48.4662 65.2414 48.6165 65.27 48.768 65.2688C48.9196 65.2702 49.07 65.2416 49.2106 65.1848C49.3512 65.128 49.4792 65.044 49.5872 64.9376C49.6953 64.8313 49.7813 64.7047 49.8404 64.565C49.8995 64.4254 49.9304 64.2755 49.9315 64.1238C49.9302 63.9723 49.8992 63.8225 49.8401 63.683C49.7809 63.5435 49.6949 63.417 49.5868 63.3108C49.4788 63.2046 49.3508 63.1207 49.2103 63.0639C49.0698 63.0071 48.9195 62.9786 48.768 62.98H48.7692ZM45.4161 65.1143C45.2929 65.1131 45.1708 65.1362 45.0565 65.1823C44.9423 65.2283 44.8383 65.2965 44.7505 65.3828C44.6627 65.4692 44.5927 65.572 44.5447 65.6854C44.4967 65.7988 44.4715 65.9205 44.4706 66.0437C44.4706 66.5568 44.8937 66.973 45.4161 66.973C45.9384 66.973 46.3593 66.5568 46.3593 66.0437C46.3584 65.9207 46.3333 65.7991 46.2854 65.6859C46.2375 65.5727 46.1678 65.4699 46.0802 65.3836C45.9926 65.2973 45.8889 65.2291 45.7749 65.1829C45.661 65.1367 45.539 65.1134 45.4161 65.1143ZM42.1183 66.2443C41.9056 66.2428 41.7009 66.3257 41.5492 66.4748C41.3974 66.6239 41.311 66.8272 41.3089 67.0399C41.3089 67.4815 41.671 67.839 42.1183 67.839C42.5657 67.839 42.9289 67.4815 42.9289 67.0411C42.9282 66.9354 42.9066 66.831 42.8655 66.7337C42.8243 66.6364 42.7644 66.5482 42.6891 66.4741C42.6138 66.3999 42.5246 66.3414 42.4267 66.3018C42.3288 66.2622 42.224 66.2434 42.1183 66.2443ZM39.0305 66.6928C38.9396 66.6921 38.8495 66.7092 38.7653 66.7433C38.681 66.7774 38.6043 66.8277 38.5396 66.8914C38.4748 66.9551 38.4232 67.0309 38.3877 67.1146C38.3522 67.1982 38.3336 67.2881 38.3329 67.3789C38.3335 67.4699 38.352 67.5598 38.3874 67.6436C38.4228 67.7274 38.4744 67.8034 38.5391 67.8672C38.6039 67.931 38.6807 67.9814 38.765 68.0156C38.8493 68.0497 38.9395 68.0669 39.0305 68.0661C39.1213 68.0667 39.2114 68.0495 39.2956 68.0152C39.3797 67.981 39.4563 67.9306 39.521 67.8668C39.5857 67.803 39.6371 67.727 39.6725 67.6433C39.7078 67.5596 39.7263 67.4698 39.7269 67.3789C39.7254 67.1956 39.6512 67.0204 39.5206 66.8918C39.39 66.7632 39.2137 66.6916 39.0305 66.6928ZM35.9368 66.2443C35.8312 66.2434 35.7264 66.2633 35.6284 66.3029C35.5305 66.3426 35.4414 66.4011 35.3661 66.4752C35.2908 66.5493 35.2308 66.6375 35.1897 66.7348C35.1485 66.8321 35.127 66.9366 35.1262 67.0422C35.1262 67.4827 35.4894 67.8401 35.9368 67.8401C36.3842 67.8401 36.7474 67.4827 36.7474 67.0422C36.7466 66.9366 36.7251 66.8321 36.6839 66.7348C36.6428 66.6375 36.5828 66.5493 36.5075 66.4752C36.4322 66.4011 36.3431 66.3426 36.2452 66.3029C36.1472 66.2633 36.0424 66.2434 35.9368 66.2443ZM32.6391 65.1143C32.1202 65.1143 31.6982 65.5283 31.6982 66.0391C31.6982 66.5499 32.1202 66.9661 32.6391 66.9661C33.1591 66.9661 33.5799 66.551 33.5799 66.0391C33.5799 65.5271 33.1591 65.1132 32.6391 65.1132V65.1143ZM29.2837 62.9835C28.9782 62.9813 28.6845 63.1004 28.4668 63.3147C28.2491 63.5289 28.1253 63.8207 28.1225 64.1261C28.125 64.4318 28.2486 64.7239 28.4664 64.9384C28.6841 65.1529 28.978 65.2721 29.2837 65.27C29.4351 65.2712 29.5853 65.2426 29.7256 65.1857C29.866 65.1289 29.9938 65.045 30.1017 64.9388C30.2096 64.8326 30.2956 64.7061 30.3546 64.5667C30.4137 64.4273 30.4447 64.2776 30.4459 64.1261C30.4432 63.8205 30.3192 63.5285 30.1013 63.3142C29.8834 63.1 29.5893 62.981 29.2837 62.9835ZM26.3007 59.8091C25.5581 59.8091 24.9551 60.4029 24.9551 61.134C24.9551 61.865 25.5581 62.4577 26.3007 62.4577C27.0433 62.4577 27.6463 61.865 27.6463 61.134C27.6463 60.4029 27.0433 59.8091 26.3007 59.8091ZM24.2886 55.7561C23.4146 55.7561 22.7055 56.4537 22.7055 57.315C22.7055 58.1764 23.4146 58.874 24.2886 58.874C25.1649 58.874 25.8729 58.1764 25.8729 57.315C25.8729 56.4537 25.1638 55.7561 24.2886 55.7561ZM23.5622 50.6988C22.5498 50.6988 21.73 51.5059 21.73 52.5022C21.73 53.4984 22.5498 54.3056 23.5633 54.3056C24.5746 54.3056 25.3944 53.4984 25.3944 52.5022C25.3944 51.5059 24.5746 50.6988 23.5622 50.6988ZM24.2886 46.1304C23.4146 46.1304 22.7055 46.828 22.7055 47.6882C22.7055 48.5483 23.4146 49.2459 24.2886 49.2459C25.1626 49.2459 25.8706 48.5483 25.8706 47.6893C25.8706 46.828 25.1626 46.1304 24.2886 46.1304ZM26.2984 42.5444C25.5558 42.5444 24.9528 43.1382 24.9528 43.8704C24.9528 44.6026 25.5558 45.1941 26.2984 45.1941C27.0421 45.1941 27.644 44.6014 27.644 43.8692C27.644 43.137 27.0421 42.5444 26.2984 42.5444ZM29.286 39.7321C28.9805 39.7299 28.6868 39.849 28.4691 40.0633C28.2514 40.2775 28.1276 40.5693 28.1248 40.8747C28.1273 41.1804 28.2509 41.4725 28.4687 41.687C28.6864 41.9015 28.9804 42.0207 29.286 42.0186C29.4374 42.0198 29.5876 41.9912 29.7279 41.9343C29.8683 41.8775 29.9961 41.7936 30.104 41.6874C30.2119 41.5812 30.2979 41.4547 30.357 41.3153C30.416 41.1759 30.447 41.0262 30.4482 40.8747C30.4455 40.5691 30.3215 40.2771 30.1036 40.0628C29.8857 39.8486 29.5916 39.7296 29.286 39.7321ZM32.6402 38.0348C32.3927 38.0329 32.1546 38.1294 31.9782 38.303C31.8017 38.4766 31.7014 38.7132 31.6993 38.9607C31.7014 39.2082 31.8017 39.4447 31.9782 39.6183C32.1546 39.7919 32.3927 39.8884 32.6402 39.8866C32.8875 39.8881 33.1253 39.7915 33.3015 39.6179C33.4777 39.4443 33.5778 39.208 33.5799 38.9607C33.579 38.8382 33.554 38.717 33.5063 38.6042C33.4586 38.4914 33.3891 38.3891 33.3018 38.3031C33.2146 38.2171 33.1112 38.1492 32.9977 38.1031C32.8842 38.0571 32.7627 38.0339 32.6402 38.0348ZM35.9345 37.1619C35.4871 37.1619 35.1239 37.5193 35.1239 37.9598C35.1239 38.4003 35.4871 38.7577 35.9345 38.7577C36.3842 38.7577 36.7462 38.4003 36.7462 37.9598C36.7462 37.5193 36.383 37.1619 35.9345 37.1619ZM39.0235 36.9336C38.6384 36.9336 38.3271 37.2403 38.3271 37.6185C38.3271 37.9967 38.6384 38.3046 39.0235 38.3046C39.4075 38.3046 39.72 37.9967 39.72 37.6185C39.72 37.2403 39.4087 36.9336 39.0235 36.9336ZM42.1218 37.1642C42.0163 37.1633 41.9116 37.1832 41.8137 37.2227C41.7159 37.2623 41.6267 37.3207 41.5515 37.3947C41.4762 37.4687 41.4162 37.5568 41.375 37.6539C41.3338 37.7511 41.3121 37.8554 41.3112 37.961C41.3112 38.4014 41.6744 38.7577 42.1218 38.7577C42.568 38.7577 42.9301 38.4003 42.9301 37.9621C42.9286 37.7492 42.8426 37.5455 42.691 37.3959C42.5395 37.2463 42.3347 37.163 42.1218 37.1642ZM45.4161 38.0359C44.8972 38.0359 44.4752 38.451 44.4752 38.9607C44.4752 39.4715 44.8961 39.8854 45.4161 39.8854C45.935 39.8854 46.3558 39.4715 46.3558 38.9607C46.3537 38.7135 46.2535 38.4772 46.0773 38.3038C45.9011 38.1304 45.6633 38.0341 45.4161 38.0359ZM48.7657 39.7355C48.6144 39.7343 48.4644 39.7629 48.3242 39.8197C48.184 39.8764 48.0563 39.9603 47.9485 40.0664C47.8407 40.1725 47.7548 40.2988 47.6958 40.4381C47.6368 40.5774 47.6058 40.7269 47.6046 40.8782C47.6046 41.5089 48.1235 42.0197 48.7657 42.0197C49.0708 42.0219 49.3643 41.9029 49.5818 41.6889C49.7993 41.4749 49.9229 41.1833 49.9257 40.8782C49.9257 40.2475 49.4068 39.7355 48.7657 39.7355ZM51.7521 42.5455C51.3978 42.5431 51.0569 42.6813 50.8044 42.9299C50.5519 43.1785 50.4084 43.5172 50.4054 43.8715C50.4054 44.6037 51.0096 45.1976 51.7533 45.1976C52.1076 45.2 52.4485 45.0618 52.701 44.8131C52.9535 44.5645 53.097 44.2259 53.1001 43.8715C53.097 43.5172 52.9535 43.1785 52.701 42.9299C52.4485 42.6813 52.1065 42.5431 51.7521 42.5455ZM53.7654 46.1258C52.8925 46.1258 52.1834 46.8234 52.1834 47.6824C52.1834 48.5437 52.8925 49.2413 53.7654 49.2413C54.6405 49.2413 55.3485 48.5437 55.3485 47.6835C55.3485 46.8234 54.6405 46.1258 53.7654 46.1258ZM46.5034 54.8832C46.3165 54.882 46.1367 54.955 46.0035 55.0862C45.8703 55.2175 45.7947 55.3962 45.7931 55.5831C45.7931 55.9706 46.1114 56.283 46.5034 56.283C46.8966 56.283 47.2149 55.9706 47.2149 55.5831C47.2141 55.4905 47.1951 55.3989 47.1589 55.3135C47.1228 55.2282 47.0702 55.1508 47.0041 55.0858C46.938 55.0208 46.8598 54.9695 46.7739 54.9347C46.688 54.9 46.5961 54.8825 46.5034 54.8832ZM44.7277 57.4776C44.635 57.4769 44.5431 57.4944 44.4572 57.5291C44.3713 57.5639 44.2931 57.6152 44.227 57.6802C44.161 57.7452 44.1083 57.8226 44.0722 57.9079C44.036 57.9932 44.017 58.0848 44.0163 58.1775C44.0163 58.5638 44.3345 58.8774 44.7277 58.8774C45.1209 58.8774 45.4391 58.5638 45.4391 58.1775C45.4384 58.0848 45.4194 57.9932 45.3832 57.9079C45.3471 57.8226 45.2944 57.7452 45.2284 57.6802C45.1623 57.6152 45.0841 57.5639 44.9982 57.5291C44.9123 57.4944 44.8204 57.4769 44.7277 57.4776ZM42.0953 59.1438C41.6686 59.1438 41.3227 59.4839 41.3227 59.9036C41.3227 60.3234 41.6686 60.6635 42.0953 60.6635C42.5219 60.6635 42.8678 60.3234 42.8678 59.9025C42.8678 59.4839 42.5219 59.1438 42.0953 59.1438ZM38.982 59.5969C38.8464 59.5957 38.7119 59.6212 38.5861 59.6721C38.4604 59.7229 38.3459 59.798 38.2492 59.8931C38.1525 59.9882 38.0755 60.1014 38.0226 60.2263C37.9696 60.3511 37.9419 60.4852 37.9408 60.6208C37.9408 61.1858 38.4066 61.6436 38.9809 61.6436C39.5551 61.6436 40.0209 61.1847 40.0209 60.6208C40.02 60.4853 39.9924 60.3512 39.9396 60.2264C39.8868 60.1015 39.8099 59.9882 39.7133 59.8931C39.6167 59.798 39.5023 59.7229 39.3766 59.6721C39.2509 59.6213 39.1176 59.5957 38.982 59.5969ZM35.8768 58.9858C35.2242 58.9858 34.6961 59.5047 34.6961 60.1469C34.6961 60.788 35.2242 61.3081 35.8768 61.3081C36.5283 61.3081 37.0564 60.7892 37.0564 60.1469C37.0564 59.5047 36.5283 58.9858 35.8768 58.9858ZM33.0576 57.0291C32.3346 57.0291 31.7489 57.6056 31.7489 58.3182C31.7489 59.0296 32.3346 59.6062 33.0576 59.6062C33.7806 59.6062 34.3663 59.0296 34.3663 58.3182C34.3663 57.6068 33.7806 57.0291 33.0576 57.0291ZM31.2012 54.4116C31.0579 54.4103 30.9158 54.4372 30.7829 54.4908C30.65 54.5445 30.529 54.6238 30.4268 54.7242C30.3247 54.8247 30.2433 54.9443 30.1874 55.0763C30.1315 55.2082 30.1022 55.3499 30.1012 55.4932C30.1012 56.0905 30.5935 56.5736 31.2 56.5736C31.8065 56.5736 32.2989 56.0893 32.2989 55.4932C32.2965 55.2041 32.1794 54.9278 31.9733 54.725C31.7673 54.5222 31.4903 54.4095 31.2012 54.4116ZM30.7653 51.5336C30.6544 51.5327 30.5444 51.5537 30.4415 51.5953C30.3387 51.637 30.2451 51.6985 30.1661 51.7763C30.087 51.8542 30.0241 51.9469 29.9809 52.049C29.9378 52.1512 29.9151 52.2609 29.9144 52.3719C29.9144 52.8331 30.2949 53.209 30.7653 53.209C30.989 53.2105 31.2041 53.1232 31.3635 52.9663C31.5228 52.8093 31.6133 52.5955 31.6151 52.3719C31.6144 52.261 31.5918 52.1514 31.5487 52.0493C31.5056 51.9472 31.4428 51.8546 31.3639 51.7767C31.2849 51.6989 31.1915 51.6374 31.0888 51.5956C30.9861 51.5539 30.8762 51.5328 30.7653 51.5336ZM31.5137 48.7213C31.4205 48.7205 31.3282 48.7381 31.2419 48.7731C31.1555 48.808 31.0769 48.8596 31.0105 48.9249C30.9442 48.9902 30.8913 49.068 30.855 49.1537C30.8186 49.2395 30.7995 49.3315 30.7988 49.4247C30.7988 49.8121 31.1193 50.1269 31.5137 50.1269C31.6067 50.1276 31.699 50.11 31.7853 50.0751C31.8716 50.0401 31.9501 49.9885 32.0164 49.9232C32.0827 49.8579 32.1354 49.7801 32.1717 49.6944C32.2079 49.6086 32.2268 49.5166 32.2274 49.4235C32.2267 49.3304 32.2076 49.2384 32.1712 49.1527C32.1349 49.0671 32.082 48.9894 32.0156 48.9242C31.9492 48.8589 31.8706 48.8075 31.7842 48.7726C31.6979 48.7378 31.6067 48.7204 31.5137 48.7213ZM33.2894 46.1534C33.1024 46.1522 32.9226 46.2252 32.7894 46.3565C32.6563 46.4877 32.5806 46.6664 32.5791 46.8533C32.5791 47.2396 32.8973 47.5521 33.2905 47.5521C33.6826 47.5521 34.0008 47.2396 34.0008 46.8533C33.9993 46.6664 33.9236 46.4877 33.7905 46.3565C33.6573 46.2252 33.4775 46.1522 33.2905 46.1534H33.2894ZM35.9183 44.3547C35.4929 44.3547 35.147 44.696 35.147 45.1157C35.147 45.5354 35.4929 45.8756 35.9195 45.8756C36.3461 45.8756 36.6921 45.5354 36.6921 45.1145C36.6921 44.6937 36.345 44.3547 35.9183 44.3547ZM39.0316 43.3734C38.8971 43.3724 38.7638 43.3978 38.6391 43.4483C38.5145 43.4987 38.401 43.5733 38.3052 43.6676C38.2094 43.7619 38.1331 43.8742 38.0806 43.998C38.0282 44.1219 38.0007 44.2548 37.9996 44.3893C37.9996 44.9508 38.4608 45.4063 39.0316 45.4063C39.1663 45.4075 39.2998 45.3821 39.4247 45.3316C39.5495 45.2812 39.6632 45.2065 39.7591 45.1121C39.8551 45.0176 39.9315 44.9051 39.9839 44.7811C40.0364 44.6571 40.0638 44.5239 40.0647 44.3893C40.0647 43.8277 39.6024 43.3734 39.0316 43.3734ZM42.1449 43.7101C41.4957 43.7101 40.9687 44.229 40.9687 44.8678C40.9687 45.5066 41.4957 46.0255 42.1449 46.0255C42.7952 46.0255 43.321 45.5066 43.321 44.8678C43.321 44.229 42.7952 43.7101 42.1449 43.7101ZM44.9502 45.4074C44.2261 45.4074 43.6392 45.9862 43.6392 46.6988C43.6392 47.4114 44.2261 47.9903 44.9502 47.9903C45.6744 47.9903 46.2624 47.4114 46.2624 46.6988C46.2624 45.9862 45.6744 45.4074 44.9502 45.4074ZM46.8101 48.44C46.6671 48.4387 46.5252 48.4657 46.3926 48.5194C46.26 48.573 46.1393 48.6523 46.0373 48.7526C45.9354 48.853 45.8542 48.9724 45.7985 49.1042C45.7427 49.2359 45.7135 49.3773 45.7124 49.5204C45.7124 50.1165 46.2036 50.5996 46.8101 50.5996C47.4155 50.5996 47.9067 50.1153 47.9067 49.5204C47.9056 49.3774 47.8764 49.2361 47.8207 49.1044C47.7651 48.9728 47.684 48.8534 47.5822 48.753C47.4804 48.6527 47.3598 48.5734 47.2273 48.5197C47.0948 48.466 46.9531 48.4389 46.8101 48.44ZM43.9529 53.1836C43.5896 53.1836 43.2956 53.473 43.2956 53.8293C43.2956 54.1856 43.5896 54.4751 43.9529 54.4751C44.3149 54.4751 44.6089 54.1868 44.6089 53.8293C44.6089 53.4719 44.3149 53.1836 43.9517 53.1836H43.9529ZM42.6787 55.1807C42.5515 55.1797 42.4254 55.2037 42.3074 55.2514C42.1895 55.299 42.0822 55.3695 41.9915 55.4587C41.9008 55.5479 41.8285 55.6541 41.7789 55.7712C41.7292 55.8883 41.7031 56.014 41.7021 56.1412C41.7021 56.6716 42.1402 57.1017 42.6787 57.1017C43.2172 57.1017 43.6542 56.6716 43.6542 56.1412C43.6521 55.8845 43.5481 55.6392 43.3652 55.4591C43.1823 55.279 42.9354 55.1789 42.6787 55.1807ZM40.1685 56.4871C39.8998 56.4853 39.6413 56.5901 39.4498 56.7786C39.2583 56.9671 39.1493 57.2239 39.1469 57.4926C39.1469 58.0484 39.6047 58.4992 40.1685 58.4992C40.7324 58.4992 41.1913 58.0495 41.1913 57.4926C41.1888 57.2237 41.0798 56.9667 40.888 56.7782C40.6962 56.5897 40.4374 56.485 40.1685 56.4871ZM37.2317 56.4133C37.1136 56.4124 36.9964 56.4348 36.887 56.4791C36.7775 56.5235 36.6778 56.589 36.5937 56.6719C36.5095 56.7547 36.4425 56.8534 36.3965 56.9622C36.3504 57.0709 36.3263 57.1877 36.3254 57.3058C36.3275 57.5441 36.4242 57.7719 36.5941 57.939C36.764 58.1061 36.9933 58.199 37.2317 58.1971C37.47 58.199 37.6993 58.1061 37.8693 57.939C38.0392 57.7719 38.1359 57.5441 38.138 57.3058C38.1371 57.1877 38.1129 57.0709 38.0669 56.9622C38.0208 56.8534 37.9538 56.7547 37.8697 56.6719C37.7855 56.589 37.6859 56.5235 37.5764 56.4791C37.4669 56.4348 37.3498 56.4124 37.2317 56.4133ZM35.0489 54.957C34.9623 54.9563 34.8764 54.9726 34.7961 55.005C34.7158 55.0375 34.6427 55.0854 34.5809 55.1461C34.5191 55.2068 34.4699 55.2791 34.436 55.3589C34.4022 55.4386 34.3844 55.5242 34.3836 55.6108C34.3836 55.9729 34.6811 56.2658 35.0489 56.2658C35.1357 56.2665 35.2217 56.2502 35.302 56.2176C35.3824 56.1851 35.4556 56.1371 35.5174 56.0763C35.5792 56.0154 35.6284 55.943 35.6622 55.8631C35.696 55.7833 35.7137 55.6975 35.7143 55.6108C35.7135 55.5242 35.6957 55.4386 35.6619 55.3589C35.628 55.2791 35.5788 55.2068 35.517 55.1461C35.4552 55.0854 35.3821 55.0375 35.3018 55.005C35.2215 54.9726 35.1356 54.9563 35.0489 54.957ZM34.1818 53.0695C34.119 53.069 34.0567 53.0809 33.9985 53.1046C33.9402 53.1282 33.8872 53.1631 33.8425 53.2072C33.7977 53.2513 33.7621 53.3038 33.7376 53.3617C33.7131 53.4196 33.7003 53.4817 33.6999 53.5445C33.6999 53.8063 33.9166 54.0196 34.1818 54.0196C34.2449 54.0204 34.3074 54.0087 34.3659 53.9852C34.4244 53.9617 34.4777 53.9269 34.5227 53.8827C34.5677 53.8386 34.6036 53.786 34.6282 53.7279C34.6528 53.6699 34.6657 53.6076 34.6661 53.5445C34.6657 53.4815 34.6528 53.4192 34.6282 53.3611C34.6036 53.3031 34.5677 53.2505 34.5227 53.2064C34.4777 53.1622 34.4244 53.1274 34.3659 53.1039C34.3074 53.0804 34.2449 53.0687 34.1818 53.0695ZM34.1323 50.61C34.0467 50.6091 33.9617 50.6251 33.8823 50.6571C33.8029 50.6891 33.7306 50.7364 33.6696 50.7964C33.6085 50.8564 33.5599 50.9278 33.5265 51.0067C33.4931 51.0855 33.4756 51.1701 33.475 51.2557C33.475 51.612 33.7691 51.9014 34.1323 51.9014C34.4943 51.9014 34.7872 51.612 34.7872 51.2557C34.7872 50.8983 34.4943 50.61 34.1323 50.61ZM35.4099 47.9776C35.154 47.9757 34.9078 48.0755 34.7254 48.2549C34.5429 48.4343 34.4391 48.6787 34.4367 48.9346C34.4367 49.465 34.8725 49.894 35.4099 49.894C35.6659 49.8958 35.9123 49.7959 36.0947 49.6163C36.2772 49.4366 36.3809 49.1918 36.383 48.9358C36.3809 48.6797 36.2772 48.4349 36.0947 48.2553C35.9123 48.0756 35.6659 47.9757 35.4099 47.9776ZM37.9051 46.5778C37.3401 46.5778 36.8812 47.0286 36.8812 47.5855C36.8812 48.1425 37.3389 48.5922 37.9051 48.5922C38.4701 48.5922 38.9278 48.1425 38.9278 47.5855C38.9278 47.0286 38.4701 46.5778 37.9051 46.5778ZM40.85 46.8995C40.7317 46.8982 40.6143 46.9204 40.5046 46.9646C40.3948 47.0088 40.2949 47.0743 40.2105 47.1572C40.1261 47.2401 40.0589 47.3388 40.0127 47.4477C39.9665 47.5567 39.9423 47.6736 39.9414 47.7919C39.9414 48.2854 40.3484 48.6856 40.85 48.6856C40.9682 48.6865 41.0855 48.6641 41.1951 48.6197C41.3047 48.5752 41.4045 48.5097 41.4888 48.4267C41.5731 48.3437 41.6401 48.2449 41.6862 48.136C41.7323 48.0271 41.7565 47.9102 41.7574 47.7919C41.7565 47.6737 41.7323 47.5569 41.6862 47.448C41.6401 47.3392 41.573 47.2405 41.4887 47.1576C41.4044 47.0747 41.3046 47.0092 41.195 46.9649C41.0854 46.9207 40.9682 46.8984 40.85 46.8995ZM43.02 48.7997C42.8453 48.7985 42.6772 48.8666 42.5527 48.9892C42.4282 49.1118 42.3574 49.2788 42.3559 49.4535C42.3559 49.8155 42.6534 50.1084 43.02 50.1084C43.3867 50.1084 43.6853 49.8155 43.6853 49.4535C43.6846 49.3669 43.6668 49.2813 43.6329 49.2015C43.5991 49.1218 43.5499 49.0495 43.4881 48.9888C43.4263 48.9281 43.3532 48.8801 43.2729 48.8477C43.1926 48.8153 43.1066 48.7989 43.02 48.7997ZM43.9344 51.062C43.8713 51.0614 43.8087 51.0732 43.7502 51.0969C43.6917 51.1205 43.6384 51.1554 43.5935 51.1996C43.5485 51.2439 43.5127 51.2965 43.4881 51.3546C43.4635 51.4127 43.4506 51.4751 43.4501 51.5382C43.4501 51.8 43.6669 52.0133 43.9344 52.0133C44.1996 52.0133 44.4175 51.8 44.4175 51.5382C44.4171 51.4751 44.4042 51.4127 44.3796 51.3546C44.355 51.2965 44.3192 51.2439 44.2742 51.1996C44.2292 51.1554 44.1759 51.1205 44.1174 51.0969C44.0589 51.0732 43.9975 51.0614 43.9344 51.062ZM47.2379 51.8092C46.7663 51.8092 46.3846 52.1862 46.3846 52.6509C46.3846 53.1144 46.7663 53.4903 47.2379 53.4903C47.7107 53.4903 48.0912 53.1144 48.0912 52.6498C48.0893 52.4252 47.9985 52.2105 47.8385 52.0529C47.6785 51.8953 47.4625 51.8076 47.2379 51.8092ZM50.7617 52.8273C50.6445 52.8264 50.5282 52.8486 50.4196 52.8926C50.311 52.9366 50.2121 53.0016 50.1286 53.0838C50.045 53.1661 49.9785 53.2639 49.9328 53.3719C49.8872 53.4798 49.8632 53.5957 49.8623 53.7129C49.8623 54.2018 50.2635 54.5984 50.7617 54.5984C51.2575 54.5984 51.661 54.2018 51.661 53.7129C51.6601 53.5957 51.6362 53.4798 51.5905 53.3719C51.5448 53.2639 51.4783 53.1661 51.3948 53.0838C51.3112 53.0016 51.2123 52.9366 51.1037 52.8926C50.9951 52.8486 50.8789 52.8264 50.7617 52.8273ZM49.8692 55.9544C49.7582 55.9535 49.6481 55.9745 49.5452 56.0161C49.4423 56.0577 49.3486 56.1192 49.2695 56.1971C49.1904 56.2749 49.1274 56.3676 49.0841 56.4698C49.0407 56.572 49.018 56.6817 49.0171 56.7927C49.0171 57.2562 49.3976 57.631 49.8692 57.631C50.3408 57.631 50.7213 57.2562 50.7213 56.7927C50.7204 56.6816 50.6976 56.5718 50.6542 56.4695C50.6108 56.3672 50.5477 56.2745 50.4685 56.1967C50.3892 56.1188 50.2954 56.0573 50.1924 56.0158C50.0893 55.9742 49.9803 55.9534 49.8692 55.9544ZM48.3356 58.5788C48.2419 58.578 48.1489 58.5957 48.062 58.6309C47.9752 58.6661 47.896 58.718 47.8292 58.7837C47.7624 58.8495 47.7092 58.9278 47.6726 59.0141C47.6361 59.1004 47.6169 59.193 47.6161 59.2868C47.6161 59.6776 47.9378 59.9947 48.3345 59.9947C48.4282 59.9955 48.5212 59.9778 48.608 59.9426C48.6949 59.9075 48.774 59.8555 48.8409 59.7898C48.9077 59.724 48.9609 59.6458 48.9974 59.5595C49.034 59.4732 49.0532 59.3805 49.054 59.2868C49.0532 59.193 49.034 59.1004 48.9974 59.0141C48.9609 58.9278 48.9077 58.8495 48.8409 58.7837C48.774 58.718 48.6949 58.6661 48.608 58.6309C48.5212 58.5957 48.4294 58.578 48.3356 58.5788ZM46.4942 60.5286C46.331 60.5277 46.1741 60.5915 46.0578 60.706C45.9415 60.8206 45.8754 60.9765 45.8738 61.1397C45.8738 61.4776 46.1506 61.752 46.4942 61.752C46.5752 61.7528 46.6556 61.7376 46.7307 61.7073C46.8058 61.677 46.8743 61.6321 46.9321 61.5754C46.9899 61.5187 47.036 61.4511 47.0677 61.3765C47.0994 61.302 47.1161 61.2219 47.1168 61.1409C47.1161 61.0599 47.0994 60.9798 47.0677 60.9052C47.036 60.8307 46.9899 60.7631 46.9321 60.7064C46.8743 60.6496 46.8058 60.6048 46.7307 60.5745C46.6556 60.5442 46.5752 60.529 46.4942 60.5298V60.5286ZM44.5501 61.9515C44.4807 61.9509 44.4118 61.964 44.3474 61.99C44.283 62.0161 44.2244 62.0546 44.1749 62.1033C44.1255 62.152 44.0861 62.21 44.0591 62.274C44.032 62.338 44.0179 62.4067 44.0174 62.4761C44.0174 62.7644 44.2561 62.9996 44.5501 62.9996C44.6195 63.0002 44.6883 62.9872 44.7526 62.9612C44.8169 62.9352 44.8754 62.8968 44.9249 62.8482C44.9744 62.7996 45.0138 62.7417 45.0409 62.6779C45.068 62.614 45.0822 62.5455 45.0828 62.4761C45.0824 62.4067 45.0682 62.338 45.0412 62.274C45.0142 62.21 44.9748 62.152 44.9253 62.1033C44.8758 62.0546 44.8172 62.0161 44.7529 61.99C44.6885 61.964 44.6196 61.9509 44.5501 61.9515ZM42.3501 62.7552C42.2692 62.7545 42.1891 62.7699 42.1141 62.8003C42.0392 62.8306 41.971 62.8755 41.9134 62.9322C41.8558 62.989 41.8099 63.0565 41.7784 63.131C41.7469 63.2055 41.7304 63.2854 41.7298 63.3663C41.7298 63.703 42.0065 63.9762 42.3501 63.9762C42.4309 63.9769 42.511 63.9615 42.5859 63.9311C42.6608 63.9007 42.7289 63.8559 42.7864 63.7991C42.844 63.7423 42.8897 63.6748 42.9211 63.6003C42.9525 63.5259 42.9688 63.4459 42.9693 63.3651C42.9693 63.0284 42.6926 62.7552 42.3501 62.7552ZM39.7638 63.1703C39.6705 63.1696 39.578 63.1874 39.4916 63.2226C39.4052 63.2577 39.3266 63.3095 39.2602 63.375C39.1938 63.4406 39.141 63.5185 39.1047 63.6045C39.0685 63.6904 39.0495 63.7827 39.0489 63.8759C39.0489 64.2645 39.3695 64.5804 39.7638 64.5804C39.8572 64.5814 39.9498 64.5639 40.0364 64.5289C40.123 64.494 40.2019 64.4423 40.2685 64.3769C40.3351 64.3115 40.3882 64.2335 40.4246 64.1476C40.4611 64.0616 40.4802 63.9693 40.481 63.8759C40.4804 63.7825 40.4613 63.69 40.4249 63.6039C40.3886 63.5178 40.3355 63.4398 40.2689 63.3742C40.2023 63.3086 40.1233 63.2569 40.0367 63.2219C39.95 63.1869 39.8573 63.1693 39.7638 63.1703ZM36.8062 62.882C36.6848 62.8811 36.5643 62.9041 36.4518 62.9497C36.3392 62.9954 36.2368 63.0627 36.1503 63.1479C36.0638 63.2332 35.9949 63.3346 35.9476 63.4465C35.9003 63.5583 35.8754 63.6784 35.8745 63.7998C35.8745 64.306 36.2919 64.7165 36.8062 64.7165C37.3205 64.7165 37.7379 64.306 37.7379 63.7998C37.737 63.6784 37.7121 63.5584 37.6648 63.4466C37.6175 63.3348 37.5486 63.2335 37.4621 63.1484C37.3755 63.0632 37.2731 62.996 37.1605 62.9505C37.048 62.905 36.9276 62.8809 36.8062 62.882ZM33.6964 61.7831C33.407 61.781 33.1286 61.8938 32.9223 62.0968C32.7161 62.2998 32.5988 62.5764 32.5964 62.8659C32.5964 63.4643 33.0887 63.9497 33.6964 63.9497C34.3041 63.9497 34.7964 63.4643 34.7964 62.8659C34.7954 62.7225 34.7661 62.5807 34.7102 62.4486C34.6544 62.3165 34.5731 62.1967 34.4709 62.0961C34.3688 61.9954 34.2478 61.9159 34.1149 61.862C33.982 61.8081 33.8398 61.7809 33.6964 61.782V61.7831ZM30.9406 59.7491C30.228 59.7491 29.6492 60.3187 29.6492 61.021C29.6492 61.7243 30.228 62.2928 30.9406 62.2928C31.6555 62.2928 32.2332 61.7232 32.2332 61.021C32.2332 60.3176 31.6543 59.7491 30.9406 59.7491ZM28.6552 56.6797C27.8827 56.6797 27.2566 57.2966 27.2566 58.0564C27.2566 58.8175 27.8827 59.4344 28.6552 59.4344C29.4278 59.4344 30.0551 58.8175 30.0551 58.0564C30.0551 57.2954 29.4289 56.6797 28.6552 56.6797ZM27.3569 53.4857C27.2134 53.4845 27.071 53.5116 26.9379 53.5654C26.8048 53.6192 26.6836 53.6987 26.5812 53.7994C26.4789 53.9 26.3974 54.0198 26.3413 54.152C26.2853 54.2841 26.2558 54.4261 26.2546 54.5696C26.2546 55.1692 26.7481 55.6535 27.3569 55.6535C27.6467 55.6556 27.9256 55.5427 28.1322 55.3395C28.3389 55.1363 28.4565 54.8594 28.4592 54.5696C28.4592 53.97 27.9657 53.4857 27.3569 53.4857ZM27.2946 50.399C27.0569 50.3972 26.8282 50.4897 26.6587 50.6564C26.4892 50.8231 26.3928 51.0503 26.3906 51.288C26.3906 51.7804 26.7942 52.1782 27.2946 52.1782C27.4124 52.1791 27.5293 52.1568 27.6385 52.1125C27.7477 52.0683 27.8471 52.003 27.931 51.9203C28.0149 51.8377 28.0818 51.7393 28.1277 51.6308C28.1736 51.5223 28.1977 51.4058 28.1986 51.288C28.1965 51.0503 28.1001 50.8231 27.9306 50.6564C27.7611 50.4897 27.5324 50.3972 27.2946 50.399ZM28.1825 47.3688C28.0714 47.3678 27.9612 47.3888 27.8583 47.4306C27.7553 47.4723 27.6616 47.5339 27.5824 47.6118C27.5033 47.6898 27.4403 47.7826 27.397 47.8849C27.3538 47.9872 27.3311 48.0971 27.3304 48.2082C27.3304 48.6706 27.7109 49.0465 28.1836 49.0465C28.6541 49.0465 29.0358 48.6706 29.0358 48.2082C29.0348 48.097 29.0121 47.9872 28.9687 47.8848C28.9253 47.7825 28.8622 47.6897 28.783 47.6117C28.7037 47.5338 28.6099 47.4722 28.5069 47.4305C28.4039 47.3888 28.2936 47.3678 28.1825 47.3688ZM29.7207 45.0108C29.6271 45.01 29.5344 45.0277 29.4477 45.0628C29.361 45.0979 29.2821 45.1498 29.2155 45.2155C29.1489 45.2811 29.0959 45.3592 29.0595 45.4454C29.0231 45.5316 29.0041 45.6241 29.0035 45.7176C29.0035 46.1073 29.3252 46.4233 29.7207 46.4233C29.8141 46.424 29.9068 46.4064 29.9934 46.3713C30.08 46.3363 30.1588 46.2845 30.2254 46.219C30.292 46.1534 30.3451 46.0754 30.3815 45.9894C30.418 45.9034 30.4371 45.811 30.4379 45.7176C30.4373 45.6241 30.4182 45.5316 30.3818 45.4454C30.3455 45.3592 30.2924 45.2811 30.2258 45.2155C30.1592 45.1498 30.0803 45.0979 29.9936 45.0628C29.9069 45.0277 29.8142 45.01 29.7207 45.0108ZM31.5586 43.2535C31.4779 43.2529 31.3979 43.2682 31.3231 43.2985C31.2483 43.3288 31.1802 43.3736 31.1227 43.4302C31.0652 43.4869 31.0194 43.5543 30.988 43.6286C30.9565 43.703 30.9401 43.7828 30.9394 43.8635C30.9394 44.2002 31.2162 44.4734 31.5586 44.4734C31.6393 44.474 31.7194 44.4587 31.7942 44.4284C31.869 44.3981 31.9371 44.3533 31.9946 44.2967C32.0521 44.2401 32.0978 44.1726 32.1293 44.0983C32.1607 44.024 32.1772 43.9442 32.1778 43.8635C32.1772 43.7828 32.1607 43.703 32.1293 43.6286C32.0978 43.5543 32.0521 43.4869 31.9946 43.4302C31.9371 43.3736 31.869 43.3288 31.7942 43.2985C31.7194 43.2682 31.6393 43.2529 31.5586 43.2535ZM33.5027 41.9978C33.3622 41.9969 33.2271 42.0517 33.127 42.1503C33.0269 42.2489 32.97 42.3831 32.9688 42.5236C32.9704 42.6639 33.0274 42.7978 33.1274 42.8962C33.2275 42.9945 33.3624 43.0492 33.5027 43.0483C33.643 43.0492 33.7779 42.9945 33.878 42.8962C33.978 42.7978 34.035 42.6639 34.0366 42.5236C34.0353 42.3831 33.9784 42.2489 33.8784 42.1503C33.7783 42.0517 33.6432 41.9969 33.5027 41.9978ZM35.705 41.0304C35.6245 41.0298 35.5446 41.0451 35.4699 41.0753C35.3953 41.1056 35.3273 41.1503 35.2699 41.2068C35.2125 41.2633 35.1668 41.3306 35.1355 41.4048C35.1041 41.479 35.0876 41.5587 35.087 41.6392C35.087 41.9748 35.3637 42.248 35.7062 42.248C35.8688 42.249 36.0251 42.1854 36.141 42.0713C36.2568 41.9572 36.3227 41.8018 36.3242 41.6392C36.3236 41.5587 36.3072 41.479 36.2758 41.4048C36.2444 41.3306 36.1987 41.2633 36.1413 41.2068C36.0839 41.1503 36.0159 41.1056 35.9413 41.0753C35.8666 41.0451 35.7867 41.0298 35.7062 41.0304H35.705ZM38.2833 40.4193C38.0944 40.4181 37.9127 40.4918 37.778 40.6243C37.6434 40.7567 37.5667 40.9372 37.5649 41.1261C37.5649 41.517 37.8878 41.8329 38.2833 41.8329C38.4724 41.8345 38.6544 41.7609 38.7893 41.6284C38.9242 41.4959 39.001 41.3152 39.0028 41.1261C39.002 41.0324 38.9828 40.9397 38.9462 40.8534C38.9097 40.7671 38.8565 40.6888 38.7897 40.6231C38.7228 40.5574 38.6437 40.5054 38.5568 40.4703C38.47 40.4351 38.377 40.4185 38.2833 40.4193ZM41.2466 40.2901C40.7312 40.2901 40.3138 40.7006 40.3138 41.2068C40.3138 41.713 40.7312 42.1258 41.2466 42.1258C41.762 42.1258 42.1795 41.7142 42.1795 41.2068C42.1795 40.6995 41.762 40.2901 41.2466 40.2901ZM44.2699 40.9935C43.9802 40.9917 43.7016 41.1047 43.495 41.3078C43.2884 41.511 43.1707 41.7877 43.1676 42.0774C43.1676 42.677 43.6611 43.1636 44.2699 43.1636C44.4136 43.1646 44.5561 43.1374 44.6893 43.0834C44.8225 43.0294 44.9437 42.9496 45.0461 42.8488C45.1484 42.7479 45.2299 42.6279 45.2859 42.4955C45.3419 42.3632 45.3712 42.2211 45.3723 42.0774C45.3695 41.7876 45.2519 41.5107 45.0453 41.3075C44.8386 41.1043 44.5598 40.9914 44.2699 40.9935ZM47.1249 42.6989C46.41 42.6989 45.8312 43.2696 45.8312 43.9719C45.8312 44.6741 46.4112 45.246 47.1249 45.246C47.8398 45.246 48.4186 44.6752 48.4186 43.9719C48.4186 43.2685 47.8398 42.6989 47.1249 42.6989ZM49.3941 45.5677C48.6216 45.5677 47.9943 46.1846 47.9943 46.9444C47.9943 47.7055 48.6204 48.3223 49.3941 48.3223C50.1678 48.3223 50.7939 47.7055 50.7939 46.9444C50.7939 46.1834 50.1678 45.5677 49.3941 45.5677ZM50.6936 49.3486C50.086 49.3486 49.5936 49.8328 49.5936 50.4324C49.5936 51.032 50.086 51.5152 50.6936 51.5152C51.3024 51.5152 51.7948 51.0309 51.7948 50.4313C51.7948 49.8317 51.3024 49.3474 50.6936 49.3474V49.3486ZM56.3217 52.5022C56.3217 53.4984 55.5019 54.3056 54.4883 54.3056C53.4771 54.3056 52.6573 53.4984 52.6573 52.5022C52.6573 51.5059 53.4771 50.6988 54.4895 50.6988C55.5019 50.6988 56.3217 51.5059 56.3217 52.5022Z" fill="#FA6400"></path>
</svg>
